PathFileType	4	(X/Y/Z)	I12_1_OpenSim.trc																																																																																																																						
DataRate	CameraRate	NumFrames	NumMarkers	Units	OrigDataRate	OrigDataStartFrame	OrigNumFrames																																																																																																																		
100	100	4	40	mm	100	1	3000																																																																																																																		
Frame#	Time	R.ASIS			R.PSIS			S2			L.PSIS			L.ASIS			R.TH1			R.TH2			R.TH3			R.MKnee			R.Knee			R.SH1			R.SH2			R.SH3			R.SH4			R.Ankle			R.MAnkle			R.Heel			R.MT5			R.MT1			L.TH1			L.TH2			L.TH3			L.TH4			L.MKnee			L.Knee			L.SH1			L.SH2			L.SH3			L.Ankle			L.MAnkle			L.Heel			L.MT5			L.MT1			R.Acr			L.Acr			C7			T10			Clav			Sternum			R.Back		
		X1	Y1	Z1	X2	Y2	Z2	X3	Y3	Z3	X4	Y4	Z4	X5	Y5	Z5	X6	Y6	Z6	X7	Y7	Z7	X8	Y8	Z8	X9	Y9	Z9	X10	Y10	Z10	X11	Y11	Z11	X12	Y12	Z12	X13	Y13	Z13	X14	Y14	Z14	X15	Y15	Z15	X16	Y16	Z16	X17	Y17	Z17	X18	Y18	Z18	X19	Y19	Z19	X20	Y20	Z20	X21	Y21	Z21	X22	Y22	Z22	X23	Y23	Z23	X24	Y24	Z24	X25	Y25	Z25	X26	Y26	Z26	X27	Y27	Z27	X28	Y28	Z28	X29	Y29	Z29	X30	Y30	Z30	X31	Y31	Z31	X32	Y32	Z32	X33	Y33	Z33	X34	Y34	Z34	X35	Y35	Z35	X36	Y36	Z36	X37	Y37	Z37	X38	Y38	Z38	X39	Y39	Z39	X40	Y40	Z40
1	0	853.5163	1027.9709	-422.8021	634.2438	1033.4867	-529.9157	618.6499	1035.1735	-575.4762	638.3888	1041.2534	-626.1102	851.1705	1048.7643	-712.4352	767.6526	698.0147	-416.6583	688.3456	714.9507	-407.4126	663.5536	609.3809	-422.7819	655.8845	486.2274	-547.9688	652.3828	490.3436	-434.349	577.0702	337.7761	-429.7141	522.551	240.6228	-447.7665	503.8605	378.4676	-418.8932	451.6645	278.0464	-428.7763	388.0897	123.7657	-438.7626	430.7872	130.523	-531.2502	318.8222	113.7051	-496.9525	476.0601	39.874	-410.4455	520.3154	36.1096	-501.6519	917.374	772.1866	-735.6626	946.1809	668.3792	-720.8716	839.3504	744.912	-750.619	870.9219	641.768	-729.1255	961.8095	517.9106	-597.9271	965.5626	524.3132	-707.9445	989.7464	391.7763	-726.2165	907.8381	385.2093	-734.5433	918.4384	276.7999	-727.6635	990.5741	82.3002	-726.192	1017.3002	93.506	-626.1107	928.9492	35.8569	-672.7636	1102.5928	45.5172	-741.7598	1140.5251	59.5579	-641.4967	834.4919	1449.0685	-417.0265	776.5649	1425.1699	-729.4642	757.3372	1473.9409	-567.7834	715.0383	1151.5624	-555.627	896.9349	1380.9096	-584.314	926.614	1236.8894	-571.9524	688.13	1378.4108	-472.812
2	0.01	855.1988	1030.0809	-425.5562	635.7411	1035.1154	-532.3212	620.1183	1036.828	-577.9551	639.8529	1043.0673	-628.571	852.7188	1051.2316	-715.1421	772.9649	698.8236	-418.8416	693.2922	714.4109	-409.575	670.5266	608.2093	-424.3508	664.9499	484.5315	-548.6907	661.0498	489.5498	-434.6605	581.3174	339.4352	-429.7396	523.7654	244.0651	-447.201	509.6747	382.3949	-419.9131	454.0178	283.9198	-429.033	385.3979	131.5783	-437.9359	428.0663	135.6578	-530.0139	316.2807	126.449	-496.4351	466.7227	41.8215	-410.1246	509.3885	35.8005	-501.6126	917.879	773.0248	-738.3341	945.5264	668.86	-723.6746	839.5416	746.5402	-753.2304	869.9642	643.0544	-731.8168	958.6806	517.8218	-600.254	962.4676	523.9712	-710.2156	984.5685	390.9852	-728.2586	902.5326	385.6964	-736.8424	911.5133	277.1072	-729.6381	979.8113	81.5766	-727.0665	1007.1436	93.3279	-627.3696	917.7039	36.4962	-673.3638	1091.2595	42.8339	-742.6337	1129.6234	57.5538	-642.8041	834.6767	1451.0984	-418.8735	777.2794	1428.1144	-731.4282	757.5296	1475.929	-569.6819	716.4033	1153.4956	-558.2924	897.3933	1383.6144	-586.2352	927.6445	1239.6941	-574.1689	688.6284	1380.1749	-474.881
3	0.02	856.8015	1032.1764	-428.2993	637.1826	1036.7417	-534.7349	621.5336	1038.4919	-580.4365	641.2767	1044.884	-631.0292	854.2349	1053.67	-717.8419	778.4746	699.5917	-421.0062	698.4236	713.7503	-411.6975	677.7993	606.9316	-425.8596	674.4674	482.7553	-549.3799	670.1027	488.6705	-434.9598	585.9796	341.0894	-429.8097	525.4209	247.5415	-446.7226	515.9227	386.3229	-420.9785	456.8572	289.8189	-429.3834	383.1691	139.6507	-437.2505	425.7543	140.9975	-528.9321	314.3416	139.4838	-496.0658	457.6218	44.2188	-409.8601	498.7424	35.7756	-501.5852	918.1798	773.7264	-741.0348	944.6005	669.2034	-726.451	839.491	748.0899	-755.7711	868.7148	644.2635	-734.3966	955.3151	517.7133	-602.52	959.131	523.5924	-712.4392	979.1987	390.1805	-730.2368	897.0441	386.1494	-739.0155	904.4428	277.386	-731.4717	969.0106	80.9105	-727.8865	996.8923	93.1417	-628.5317	906.4295	37.1002	-673.9247	1079.8989	40.3176	-743.4449	1118.6725	55.6213	-644.0055	834.7841	1453.1064	-420.7181	778.0338	1431.0549	-733.4018	757.7042	1477.9099	-571.59	717.7091	1155.4093	-560.9603	897.8266	1386.3131	-588.1348	928.6648	1242.505	-576.3624	689.0709	1381.9098	-477.0033
4	0.03	858.2509	1034.2344	-431.0183	638.5164	1038.3547	-537.1567	622.8461	1040.1645	-582.914	642.6185	1046.7003	-633.4758	855.6836	1056.0492	-720.5244	784.3357	700.2917	-423.132	703.8901	712.8803	-413.7425	685.6134	605.4702	-427.2631	684.801	480.8532	-550.017	679.8441	487.655	-435.2407	591.4004	342.7497	-429.9643	527.8851	251.0915	-446.4087	522.9616	390.2606	-422.1291	460.5893	295.7702	-429.9114	381.8155	148.2082	-436.8247	424.2296	146.7234	-528.1383	313.5419	153.0511	-495.9735	448.9971	47.4663	-409.7077	488.6419	36.2953	-501.5781	918.1106	774.2017	-743.7643	943.1974	669.316	-729.1581	839.0145	749.5044	-758.1792	866.9598	645.3433	-736.773	951.5306	517.5748	-604.663	955.3735	523.1561	-714.5613	973.4962	389.3558	-732.08	891.2436	386.55	-740.9718	897.1217	277.6231	-733.0659	958.1342	80.3492	-728.5992	986.4651	92.9444	-629.5132	895.1008	37.6377	-674.4152	1068.4962	38.1182	-744.1391	1107.6285	53.8229	-645.002	834.7501	1455.0669	-422.5529	778.861	1433.9786	-735.3906	757.8462	1479.8728	-573.5148	718.9031	1157.2881	-563.6319	898.2139	1388.9901	-589.9897	929.6587	1245.3143	-578.511	689.4077	1383.5884	-479.2187
